<?xml version="1.0" encoding="utf-8"?>
<svg xmlns="http://www.w3.org/2000/svg" xmlns:xlink="http://www.w3.org/1999/xlink" style="background: rgb(231, 216, 203); display: block; position: relative; shape-rendering: auto;" width="76" height="76" preserveAspectRatio="xMidYMid" viewBox="0 0 76 76"><g transform="scale(0.30000000000000004)">


<defs><g id="id-0.0783534317984389"><!--Generator: Adobe Illustrator 21.0.0, SVG Export Plug-In . SVG Version: 6.00 Build 0)--><style type="text/css">.st0{fill:#f4e6c8}.st4{fill:#c33837}</style><path class="st4" d="M72.3,10.7c-13.6,0-20.9,8.6-22.3,13.8c-1.2-5.4-10.4-13.8-22.3-13.8C15.2,10.7,5,20.8,5,33.4c0,0,0,0,0,0 c0,0.6,0,1.3,0.1,1.9c0,0.1,0,0.2,0,0.3c0.1,0.6,0.2,1.2,0.3,1.8c0,0.1,0.1,0.3,0.1,0.4c0.1,0.6,0.3,1.2,0.4,1.7 c0,0.1,0.1,0.3,0.1,0.4c0.1,0.5,0.3,1,0.5,1.5c0.1,0.1,0.1,0.3,0.2,0.4c0.2,0.5,0.4,1.1,0.6,1.6c0.1,0.2,0.2,0.5,0.3,0.7 c0.2,0.5,0.5,1,0.7,1.4c0.1,0.3,0.3,0.5,0.4,0.8C8.9,46.7,9,47,9.2,47.3c0.3,0.5,0.5,0.9,0.8,1.4c0.1,0.2,0.3,0.4,0.4,0.6 c0.4,0.7,0.8,1.3,1.3,2c0,0.1,0.1,0.1,0.1,0.2c0.3,0.4,0.5,0.8,0.8,1.2h0c1,1.3,2,2.7,3.1,4h0c0.1,0.1,0.2,0.2,0.2,0.3 c0.6,0.7,1.3,1.5,1.9,2.2c0,0,0,0,0.1,0.1c3,3.4,6.4,6.6,9.7,9.7C34.3,75,41,80.4,45.6,84.7c0,0,0,0,0,0c0.4,0.4,0.8,0.8,1.2,1.2 C46.9,86,47,86,47,86.1c0.4,0.3,0.7,0.7,1,1c0,0,0,0,0.1,0.1c0.3,0.3,0.6,0.7,0.9,1c0.1,0.1,0.1,0.1,0.2,0.2 c0.3,0.3,0.6,0.6,0.8,0.9c0.2-0.3,0.5-0.7,0.7-1c0.1-0.1,0.1-0.2,0.2-0.2c0.3-0.3,0.6-0.7,0.9-1.1c0,0,0-0.1,0.1-0.1 c0.3-0.3,0.6-0.7,1-1.1c0.1-0.1,0.1-0.1,0.2-0.2c0.4-0.4,0.8-0.8,1.2-1.2c0,0,0.1-0.1,0.1-0.1c0.4-0.4,0.8-0.8,1.3-1.2 c0,0,0.1-0.1,0.1-0.1c5-4.7,12-10.3,18.6-16.4c2.6-2.4,5.2-4.9,7.5-7.4c0.1-0.1,0.2-0.2,0.2-0.2c0.6-0.7,1.2-1.4,1.9-2.1 c0.1-0.1,0.2-0.2,0.3-0.3h0c1.1-1.3,2.2-2.6,3.2-4h0c0.2-0.3,0.5-0.6,0.7-1c0.2-0.2,0.3-0.5,0.5-0.7c0.3-0.5,0.6-0.9,0.9-1.4 c0.2-0.3,0.4-0.6,0.5-0.8c0.2-0.3,0.4-0.7,0.6-1c0.2-0.4,0.5-0.8,0.7-1.2c0.1-0.2,0.3-0.5,0.4-0.7c0.3-0.5,0.5-1,0.7-1.5 c0.1-0.2,0.2-0.4,0.3-0.6c0.2-0.5,0.4-1,0.6-1.6c0.1-0.1,0.1-0.3,0.2-0.4c0.2-0.5,0.4-1.1,0.5-1.6c0-0.1,0.1-0.3,0.1-0.4 c0.2-0.6,0.3-1.2,0.4-1.8c0-0.1,0.1-0.3,0.1-0.4c0.1-0.6,0.2-1.2,0.3-1.8c0-0.1,0-0.2,0-0.3C95,34.7,95,34,95,33.4c0,0,0,0,0,0 C95,20.8,84.8,10.7,72.3,10.7z" data-fill="c1" style="fill: rgb(195, 56, 55);"></path><g><path class="st0" d="M84.2,56.6L84.2,56.6c-0.1,0.1-0.2,0.2-0.3,0.3C84,56.8,84.1,56.7,84.2,56.6z" data-fill="c2" style="fill: rgb(244, 230, 200);"></path><path class="st0" d="M61.7,41c-0.3-0.8-1.1-1.3-2-1.2c-0.9,0.1-1.6,0.7-1.8,1.5l-5.7,22.8L50,53.2l-4.9-23.3 c-0.2-0.9-1-1.6-1.9-1.6c-0.9,0-1.7,0.6-2,1.5l-6.3,22.9H12.7c1,1.3,2,2.7,3.1,4h20.6c0.9,0,1.7-0.6,1.9-1.5l4.6-16.4L50,72.7 l0.2,0.7c0.2,0.9,1,1.6,1.9,1.6c0,0,0,0,0,0c0.9,0,1.7-0.6,1.9-1.5l6.3-25.3l2.9,7.2c0.3,0.8,1,1.2,1.9,1.2h19 c1.1-1.3,2.2-2.6,3.2-4H66.5L61.7,41z" data-fill="c2" style="fill: rgb(244, 230, 200);"></path><path class="st0" d="M87.4,52.6L87.4,52.6c0.3-0.3,0.5-0.6,0.7-1C87.8,52,87.6,52.3,87.4,52.6z" data-fill="c2" style="fill: rgb(244, 230, 200);"></path><path class="st0" d="M16,56.9c-0.1-0.1-0.2-0.2-0.2-0.3h0C15.9,56.7,16,56.8,16,56.9z" data-fill="c2" style="fill: rgb(244, 230, 200);"></path><path class="st0" d="M12.7,52.6L12.7,52.6c-0.3-0.4-0.6-0.8-0.8-1.2C12.1,51.9,12.4,52.2,12.7,52.6z" data-fill="c2" style="fill: rgb(244, 230, 200);"></path></g><metadata xmlns:d="https://loading.io/stock/"><d:name>heartbeat</d:name><d:tags>pulse,wave,current,electric,heartbeat,web application</d:tags><d:license>pro</d:license><d:slug>hepr1k</d:slug></metadata></g></defs>

<!-- Generator: Adobe Illustrator 21.0.0, SVG Export Plug-In . SVG Version: 6.00 Build 0)  -->


















<g data-idx="0" data-dup="" dx="-128" dy="-128" style="transform-origin: -43.697px -33.235px; animation: 1s linear 0s infinite normal forwards running beat-c3c25978-44d9-4148-bd51-029e8fe73fe8;"><g transform="translate(-128,-128)"><polygon fill="#B3B4B4" points="95.261,98.953 73.345,96.2 74.22,90.577 94.461,93.724 " data-fill="c3" style="fill: rgb(179, 180, 180);"></polygon></g></g><g data-idx="0" data-dup="" dx="128" dy="-128" style="transform-origin: 212.303px -33.235px; animation: 1s linear 0s infinite normal forwards running beat-c3c25978-44d9-4148-bd51-029e8fe73fe8;"><g transform="translate(128,-128)"><polygon fill="#B3B4B4" points="95.261,98.953 73.345,96.2 74.22,90.577 94.461,93.724 " data-fill="c3" style="fill: rgb(179, 180, 180);"></polygon></g></g><g data-idx="1" data-dup="" dx="-128" dy="-128" style="transform-origin: -89.899px 85.4716px; animation: 1s linear 0s infinite normal forwards running beat-c3c25978-44d9-4148-bd51-029e8fe73fe8;"><g transform="translate(-128,-128)"><path fill="#B3B4B4" d="M38.105,224.49c-0.05,0-0.099,0-0.149-0.001c-2.943-0.039-5.694-1.221-7.748-3.33
	c-4.239-4.352-4.147-11.342,0.205-15.581c2.108-2.054,4.884-3.157,7.833-3.124c2.943,0.039,5.694,1.222,7.748,3.33
	c4.239,4.352,4.147,11.342-0.205,15.58C43.716,223.383,40.992,224.49,38.105,224.49z M38.098,207.494
	c-1.567,0-3.044,0.6-4.169,1.695c-2.361,2.3-2.411,6.092-0.111,8.453c1.114,1.144,2.607,1.785,4.204,1.806
	c1.609,0.014,3.106-0.581,4.25-1.695c2.361-2.3,2.411-6.092,0.112-8.453l0,0c-1.114-1.144-2.607-1.785-4.204-1.806
	C38.152,207.494,38.125,207.494,38.098,207.494z" data-fill="c3" style="fill: rgb(179, 180, 180);"></path></g></g><g data-idx="1" data-dup="" dx="128" dy="-128" style="transform-origin: 166.101px 85.4716px; animation: 1s linear 0s infinite normal forwards running beat-c3c25978-44d9-4148-bd51-029e8fe73fe8;"><g transform="translate(128,-128)"><path fill="#B3B4B4" d="M38.105,224.49c-0.05,0-0.099,0-0.149-0.001c-2.943-0.039-5.694-1.221-7.748-3.33
	c-4.239-4.352-4.147-11.342,0.205-15.581c2.108-2.054,4.884-3.157,7.833-3.124c2.943,0.039,5.694,1.222,7.748,3.33
	c4.239,4.352,4.147,11.342-0.205,15.58C43.716,223.383,40.992,224.49,38.105,224.49z M38.098,207.494
	c-1.567,0-3.044,0.6-4.169,1.695c-2.361,2.3-2.411,6.092-0.111,8.453c1.114,1.144,2.607,1.785,4.204,1.806
	c1.609,0.014,3.106-0.581,4.25-1.695c2.361-2.3,2.411-6.092,0.112-8.453l0,0c-1.114-1.144-2.607-1.785-4.204-1.806
	C38.152,207.494,38.125,207.494,38.098,207.494z" data-fill="c3" style="fill: rgb(179, 180, 180);"></path></g></g><g data-idx="2" data-dup="" dx="-128" dy="-128" style="transform-origin: 106.49px -80.4995px; animation: 1s linear 0s infinite normal forwards running beat-c3c25978-44d9-4148-bd51-029e8fe73fe8;"><g transform="translate(-128,-128)"><ellipse transform="matrix(0.7249 -0.6888 0.6888 0.7249 31.7828 174.5914)" fill="#B3B4B4" cx="234.5" cy="47.5" rx="4.4" ry="4.4" data-fill="c3" style="fill: rgb(179, 180, 180);"></ellipse></g></g><g data-idx="2" data-dup="" dx="128" dy="-128" style="transform-origin: 362.49px -80.4995px; animation: 1s linear 0s infinite normal forwards running beat-c3c25978-44d9-4148-bd51-029e8fe73fe8;"><g transform="translate(128,-128)"><ellipse transform="matrix(0.7249 -0.6888 0.6888 0.7249 31.7828 174.5914)" fill="#B3B4B4" cx="234.5" cy="47.5" rx="4.4" ry="4.4" data-fill="c3" style="fill: rgb(179, 180, 180);"></ellipse></g></g><g data-idx="3" data-dup="" dx="-128" dy="-128" style="transform-origin: 28.5333px 18.653px; animation: 1s linear 0s infinite normal forwards running beat-c3c25978-44d9-4148-bd51-029e8fe73fe8;"><g transform="translate(-128,-128)"><path fill="#B3B4B4" d="M156.299,159.176l-1.714-5.053c3.929-1.333,6.042-5.614,4.709-9.543c-0.645-1.903-1.994-3.442-3.796-4.331
	c-1.803-0.89-3.844-1.024-5.747-0.378l-1.714-5.053c3.254-1.103,6.741-0.874,9.822,0.646c3.08,1.52,5.385,4.149,6.488,7.402
	C166.625,149.582,163.015,156.898,156.299,159.176z" data-fill="c3" style="fill: rgb(179, 180, 180);"></path></g></g><g data-idx="3" data-dup="" dx="128" dy="-128" style="transform-origin: 284.533px 18.653px; animation: 1s linear 0s infinite normal forwards running beat-c3c25978-44d9-4148-bd51-029e8fe73fe8;"><g transform="translate(128,-128)"><path fill="#B3B4B4" d="M156.299,159.176l-1.714-5.053c3.929-1.333,6.042-5.614,4.709-9.543c-0.645-1.903-1.994-3.442-3.796-4.331
	c-1.803-0.89-3.844-1.024-5.747-0.378l-1.714-5.053c3.254-1.103,6.741-0.874,9.822,0.646c3.08,1.52,5.385,4.149,6.488,7.402
	C166.625,149.582,163.015,156.898,156.299,159.176z" data-fill="c3" style="fill: rgb(179, 180, 180);"></path></g></g><g data-idx="4" data-dup="" dx="-128" dy="-128" style="transform-origin: -25.5058px 21.4949px; animation: 1s linear 0s infinite normal forwards running beat-c3c25978-44d9-4148-bd51-029e8fe73fe8;"><g transform="translate(-128,-128)"><ellipse transform="matrix(0.7249 -0.6888 0.6888 0.7249 -74.7837 111.7244)" fill="#B3B4B4" cx="102.5" cy="149.5" rx="4.4" ry="4.4" data-fill="c3" style="fill: rgb(179, 180, 180);"></ellipse></g></g><g data-idx="4" data-dup="" dx="128" dy="-128" style="transform-origin: 230.494px 21.4949px; animation: 1s linear 0s infinite normal forwards running beat-c3c25978-44d9-4148-bd51-029e8fe73fe8;"><g transform="translate(128,-128)"><ellipse transform="matrix(0.7249 -0.6888 0.6888 0.7249 -74.7837 111.7244)" fill="#B3B4B4" cx="102.5" cy="149.5" rx="4.4" ry="4.4" data-fill="c3" style="fill: rgb(179, 180, 180);"></ellipse></g></g><g data-idx="5" data-dup="" dx="-128" dy="-128" style="transform-origin: 114.171px 116.691px; animation: 1s linear 0s infinite normal forwards running beat-c3c25978-44d9-4148-bd51-029e8fe73fe8;"><g transform="translate(-128,-128)"><polygon fill="#B3B4B4" points="231.486,249.178 247.065,235.877 252.857,238.786 235.18,253.505 " data-fill="c3" style="fill: rgb(179, 180, 180);"></polygon></g></g><g data-idx="5" data-dup="" dx="128" dy="-128" style="transform-origin: 370.171px 116.691px; animation: 1s linear 0s infinite normal forwards running beat-c3c25978-44d9-4148-bd51-029e8fe73fe8;"><g transform="translate(128,-128)"><polygon fill="#B3B4B4" points="231.486,249.178 247.065,235.877 252.857,238.786 235.18,253.505 " data-fill="c3" style="fill: rgb(179, 180, 180);"></polygon></g></g><g data-idx="6" data-dup="" dx="-128" dy="-128" style="transform-origin: -20.197px -96.9315px; animation: 1s linear 0s infinite normal forwards running beat-c3c25978-44d9-4148-bd51-029e8fe73fe8;"><g transform="translate(-128,-128)"><polygon fill="#B3B4B4" points="115.367,21.954 103.961,43.014 100.239,36.891 110.431,19.123 " data-fill="c3" style="fill: rgb(179, 180, 180);"></polygon></g></g><g data-idx="6" data-dup="" dx="128" dy="-128" style="transform-origin: 235.803px -96.9315px; animation: 1s linear 0s infinite normal forwards running beat-c3c25978-44d9-4148-bd51-029e8fe73fe8;"><g transform="translate(128,-128)"><polygon fill="#B3B4B4" points="115.367,21.954 103.961,43.014 100.239,36.891 110.431,19.123 " data-fill="c3" style="fill: rgb(179, 180, 180);"></polygon></g></g><g data-idx="7" data-dup="" dx="-128" dy="-128" style="transform-origin: 94.1px -7.15031px; animation: 1s linear 0s infinite normal forwards running beat-c3c25978-44d9-4148-bd51-029e8fe73fe8;"><g transform="translate(-128,-128)"><path fill="#B3B4B4" d="M222.104,130.57c-0.044,0-0.088,0-0.132-0.001c-2.596-0.034-5.024-1.077-6.835-2.937
	c-3.74-3.84-3.659-10.006,0.181-13.746c1.86-1.812,4.308-2.785,6.91-2.756c2.596,0.034,5.024,1.078,6.835,2.938
	c3.74,3.839,3.659,10.006-0.181,13.745C227.054,129.594,224.651,130.57,222.104,130.57z M222.099,115.576
	c-1.382,0-2.686,0.53-3.678,1.496c-2.083,2.029-2.127,5.374-0.098,7.458c0.983,1.009,2.3,1.575,3.708,1.594
	c1.42,0.013,2.74-0.512,3.749-1.495c2.083-2.029,2.127-5.374,0.098-7.457l0,0c-0.983-1.009-2.3-1.575-3.708-1.594
	C222.146,115.576,222.122,115.576,222.099,115.576z" data-fill="c3" style="fill: rgb(179, 180, 180);"></path></g></g><g data-idx="7" data-dup="" dx="128" dy="-128" style="transform-origin: 350.1px -7.15031px; animation: 1s linear 0s infinite normal forwards running beat-c3c25978-44d9-4148-bd51-029e8fe73fe8;"><g transform="translate(128,-128)"><path fill="#B3B4B4" d="M222.104,130.57c-0.044,0-0.088,0-0.132-0.001c-2.596-0.034-5.024-1.077-6.835-2.937
	c-3.74-3.84-3.659-10.006,0.181-13.746c1.86-1.812,4.308-2.785,6.91-2.756c2.596,0.034,5.024,1.078,6.835,2.938
	c3.74,3.839,3.659,10.006-0.181,13.745C227.054,129.594,224.651,130.57,222.104,130.57z M222.099,115.576
	c-1.382,0-2.686,0.53-3.678,1.496c-2.083,2.029-2.127,5.374-0.098,7.458c0.983,1.009,2.3,1.575,3.708,1.594
	c1.42,0.013,2.74-0.512,3.749-1.495c2.083-2.029,2.127-5.374,0.098-7.457l0,0c-0.983-1.009-2.3-1.575-3.708-1.594
	C222.146,115.576,222.122,115.576,222.099,115.576z" data-fill="c3" style="fill: rgb(179, 180, 180);"></path></g></g><g data-idx="8" data-dup="" dx="-128" dy="-128" style="transform-origin: 46.6647px -119.158px; animation: 1s linear 0s infinite normal forwards running beat-c3c25978-44d9-4148-bd51-029e8fe73fe8;"><g transform="translate(-128,-128)"><path fill="#B3B4B4" d="M184.509,10.022l-4.015,1.058c-0.822-3.122-4.032-4.993-7.154-4.17c-1.512,0.398-2.779,1.362-3.567,2.713
	c-0.788,1.352-1.003,2.929-0.603,4.44l-4.015,1.058c-0.681-2.585-0.315-5.28,1.031-7.589c1.346-2.309,3.511-3.956,6.096-4.637
	C177.619,1.489,183.103,4.687,184.509,10.022z" data-fill="c3" style="fill: rgb(179, 180, 180);"></path></g></g><g data-idx="8" data-dup="" dx="128" dy="-128" style="transform-origin: 302.665px -119.158px; animation: 1s linear 0s infinite normal forwards running beat-c3c25978-44d9-4148-bd51-029e8fe73fe8;"><g transform="translate(128,-128)"><path fill="#B3B4B4" d="M184.509,10.022l-4.015,1.058c-0.822-3.122-4.032-4.993-7.154-4.17c-1.512,0.398-2.779,1.362-3.567,2.713
	c-0.788,1.352-1.003,2.929-0.603,4.44l-4.015,1.058c-0.681-2.585-0.315-5.28,1.031-7.589c1.346-2.309,3.511-3.956,6.096-4.637
	C177.619,1.489,183.103,4.687,184.509,10.022z" data-fill="c3" style="fill: rgb(179, 180, 180);"></path></g></g><g data-idx="9" data-dup="" dx="-128" dy="-128" style="transform-origin: -6.92412px 94.3993px; animation: 1s linear 0s infinite normal forwards running beat-c3c25978-44d9-4148-bd51-029e8fe73fe8;"><g transform="translate(-128,-128)"><g transform="matrix(0.9912 0.1325 -0.1325 0.9912 30.542 -14.083) translate(121.067,222.398) scale(0.6786666666666666)"><g data-icon="" transform="scale(0.9)">  <use xlink:href="#id-0.0783534317984389" x="-50" y="-50"></use>
</g></g></g></g><g data-idx="9" data-dup="" dx="128" dy="-128" style="transform-origin: 249.076px 94.3993px; animation: 1s linear 0s infinite normal forwards running beat-c3c25978-44d9-4148-bd51-029e8fe73fe8;"><g transform="translate(128,-128)"><g transform="matrix(0.9912 0.1325 -0.1325 0.9912 30.542 -14.083) translate(121.067,222.398) scale(0.6786666666666666)"><g data-icon="" transform="scale(0.9)">  <use xlink:href="#id-0.0783534317984389" x="-50" y="-50"></use>
</g></g></g></g><g data-idx="10" data-dup="" dx="-128" dy="-128" style="transform-origin: 33.2569px -52.8258px; animation: 1s linear 0s infinite normal forwards running beat-c3c25978-44d9-4148-bd51-029e8fe73fe8;"><g transform="translate(-128,-128)"><g transform="matrix(-0.0456 0.999 -0.999 -0.0456 243.7065 -82.5047) translate(161.268,75.17099999999999) scale(0.47706666666666664)"><g data-icon="" transform="scale(0.9)">  <use xlink:href="#id-0.0783534317984389" x="-50" y="-50"></use>
</g></g></g></g><g data-idx="10" data-dup="" dx="128" dy="-128" style="transform-origin: 289.257px -52.8258px; animation: 1s linear 0s infinite normal forwards running beat-c3c25978-44d9-4148-bd51-029e8fe73fe8;"><g transform="translate(128,-128)"><g transform="matrix(-0.0456 0.999 -0.999 -0.0456 243.7065 -82.5047) translate(161.268,75.17099999999999) scale(0.47706666666666664)"><g data-icon="" transform="scale(0.9)">  <use xlink:href="#id-0.0783534317984389" x="-50" y="-50"></use>
</g></g></g></g><g data-idx="11" data-dup="" dx="-128" dy="-128" style="transform-origin: 87.3082px 65.0824px; animation: 1s linear 0s infinite normal forwards running beat-c3c25978-44d9-4148-bd51-029e8fe73fe8;"><g transform="translate(-128,-128)"><g transform="matrix(0.5905 -0.8071 0.8071 0.5905 -67.6584 252.8308) translate(215.293,193.0815) scale(0.5214666666666667)"><g data-icon="" transform="scale(0.9)">  <use xlink:href="#id-0.0783534317984389" x="-50" y="-50"></use>
</g></g></g></g><g data-idx="11" data-dup="" dx="128" dy="-128" style="transform-origin: 343.308px 65.0824px; animation: 1s linear 0s infinite normal forwards running beat-c3c25978-44d9-4148-bd51-029e8fe73fe8;"><g transform="translate(128,-128)"><g transform="matrix(0.5905 -0.8071 0.8071 0.5905 -67.6584 252.8308) translate(215.293,193.0815) scale(0.5214666666666667)"><g data-icon="" transform="scale(0.9)">  <use xlink:href="#id-0.0783534317984389" x="-50" y="-50"></use>
</g></g></g></g><g data-idx="12" data-dup="" dx="-128" dy="-128" style="transform-origin: -78.815px -89.6956px; animation: 1s linear 0s infinite normal forwards running beat-c3c25978-44d9-4148-bd51-029e8fe73fe8;"><g transform="translate(-128,-128)"><g transform="matrix(-0.4749 -0.8801 0.8801 -0.4749 38.8277 99.7848) translate(49.185,38.308499999999995) scale(0.5980444444444444)"><g data-icon="" transform="scale(0.9)">  <use xlink:href="#id-0.0783534317984389" x="-50" y="-50"></use>
</g></g></g></g><g data-idx="12" data-dup="" dx="128" dy="-128" style="transform-origin: 177.185px -89.6956px; animation: 1s linear 0s infinite normal forwards running beat-c3c25978-44d9-4148-bd51-029e8fe73fe8;"><g transform="translate(128,-128)"><g transform="matrix(-0.4749 -0.8801 0.8801 -0.4749 38.8277 99.7848) translate(49.185,38.308499999999995) scale(0.5980444444444444)"><g data-icon="" transform="scale(0.9)">  <use xlink:href="#id-0.0783534317984389" x="-50" y="-50"></use>
</g></g></g></g><g data-idx="13" data-dup="" dx="-128" dy="-128" style="transform-origin: -89.5674px 14.2466px; animation: 1s linear 0s infinite normal forwards running beat-c3c25978-44d9-4148-bd51-029e8fe73fe8;"><g transform="translate(-128,-128)"><g transform="matrix(0.7381 -0.6747 0.6747 0.7381 -85.9069 63.1885) translate(38.434,142.243) scale(0.607688888888889)"><g data-icon="" transform="scale(0.9)">  <use xlink:href="#id-0.0783534317984389" x="-50" y="-50"></use>
</g></g></g></g><g data-idx="13" data-dup="" dx="128" dy="-128" style="transform-origin: 166.433px 14.2466px; animation: 1s linear 0s infinite normal forwards running beat-c3c25978-44d9-4148-bd51-029e8fe73fe8;"><g transform="translate(128,-128)"><g transform="matrix(0.7381 -0.6747 0.6747 0.7381 -85.9069 63.1885) translate(38.434,142.243) scale(0.607688888888889)"><g data-icon="" transform="scale(0.9)">  <use xlink:href="#id-0.0783534317984389" x="-50" y="-50"></use>
</g></g></g></g><g data-idx="0" data-dup="" dx="-128" dy="128" style="transform-origin: -43.697px 222.765px; animation: 1s linear 0s infinite normal forwards running beat-c3c25978-44d9-4148-bd51-029e8fe73fe8;"><g transform="translate(-128,128)"><polygon fill="#B3B4B4" points="95.261,98.953 73.345,96.2 74.22,90.577 94.461,93.724 " data-fill="c3" style="fill: rgb(179, 180, 180);"></polygon></g></g><g data-idx="0" data-dup="" dx="128" dy="128" style="transform-origin: 212.303px 222.765px; animation: 1s linear 0s infinite normal forwards running beat-c3c25978-44d9-4148-bd51-029e8fe73fe8;"><g transform="translate(128,128)"><polygon fill="#B3B4B4" points="95.261,98.953 73.345,96.2 74.22,90.577 94.461,93.724 " data-fill="c3" style="fill: rgb(179, 180, 180);"></polygon></g></g><g data-idx="1" data-dup="" dx="-128" dy="128" style="transform-origin: -89.899px 341.472px; animation: 1s linear 0s infinite normal forwards running beat-c3c25978-44d9-4148-bd51-029e8fe73fe8;"><g transform="translate(-128,128)"><path fill="#B3B4B4" d="M38.105,224.49c-0.05,0-0.099,0-0.149-0.001c-2.943-0.039-5.694-1.221-7.748-3.33
	c-4.239-4.352-4.147-11.342,0.205-15.581c2.108-2.054,4.884-3.157,7.833-3.124c2.943,0.039,5.694,1.222,7.748,3.33
	c4.239,4.352,4.147,11.342-0.205,15.58C43.716,223.383,40.992,224.49,38.105,224.49z M38.098,207.494
	c-1.567,0-3.044,0.6-4.169,1.695c-2.361,2.3-2.411,6.092-0.111,8.453c1.114,1.144,2.607,1.785,4.204,1.806
	c1.609,0.014,3.106-0.581,4.25-1.695c2.361-2.3,2.411-6.092,0.112-8.453l0,0c-1.114-1.144-2.607-1.785-4.204-1.806
	C38.152,207.494,38.125,207.494,38.098,207.494z" data-fill="c3" style="fill: rgb(179, 180, 180);"></path></g></g><g data-idx="1" data-dup="" dx="128" dy="128" style="transform-origin: 166.101px 341.472px; animation: 1s linear 0s infinite normal forwards running beat-c3c25978-44d9-4148-bd51-029e8fe73fe8;"><g transform="translate(128,128)"><path fill="#B3B4B4" d="M38.105,224.49c-0.05,0-0.099,0-0.149-0.001c-2.943-0.039-5.694-1.221-7.748-3.33
	c-4.239-4.352-4.147-11.342,0.205-15.581c2.108-2.054,4.884-3.157,7.833-3.124c2.943,0.039,5.694,1.222,7.748,3.33
	c4.239,4.352,4.147,11.342-0.205,15.58C43.716,223.383,40.992,224.49,38.105,224.49z M38.098,207.494
	c-1.567,0-3.044,0.6-4.169,1.695c-2.361,2.3-2.411,6.092-0.111,8.453c1.114,1.144,2.607,1.785,4.204,1.806
	c1.609,0.014,3.106-0.581,4.25-1.695c2.361-2.3,2.411-6.092,0.112-8.453l0,0c-1.114-1.144-2.607-1.785-4.204-1.806
	C38.152,207.494,38.125,207.494,38.098,207.494z" data-fill="c3" style="fill: rgb(179, 180, 180);"></path></g></g><g data-idx="2" data-dup="" dx="-128" dy="128" style="transform-origin: 106.49px 175.501px; animation: 1s linear 0s infinite normal forwards running beat-c3c25978-44d9-4148-bd51-029e8fe73fe8;"><g transform="translate(-128,128)"><ellipse transform="matrix(0.7249 -0.6888 0.6888 0.7249 31.7828 174.5914)" fill="#B3B4B4" cx="234.5" cy="47.5" rx="4.4" ry="4.4" data-fill="c3" style="fill: rgb(179, 180, 180);"></ellipse></g></g><g data-idx="2" data-dup="" dx="128" dy="128" style="transform-origin: 362.49px 175.501px; animation: 1s linear 0s infinite normal forwards running beat-c3c25978-44d9-4148-bd51-029e8fe73fe8;"><g transform="translate(128,128)"><ellipse transform="matrix(0.7249 -0.6888 0.6888 0.7249 31.7828 174.5914)" fill="#B3B4B4" cx="234.5" cy="47.5" rx="4.4" ry="4.4" data-fill="c3" style="fill: rgb(179, 180, 180);"></ellipse></g></g><g data-idx="3" data-dup="" dx="-128" dy="128" style="transform-origin: 28.5333px 274.653px; animation: 1s linear 0s infinite normal forwards running beat-c3c25978-44d9-4148-bd51-029e8fe73fe8;"><g transform="translate(-128,128)"><path fill="#B3B4B4" d="M156.299,159.176l-1.714-5.053c3.929-1.333,6.042-5.614,4.709-9.543c-0.645-1.903-1.994-3.442-3.796-4.331
	c-1.803-0.89-3.844-1.024-5.747-0.378l-1.714-5.053c3.254-1.103,6.741-0.874,9.822,0.646c3.08,1.52,5.385,4.149,6.488,7.402
	C166.625,149.582,163.015,156.898,156.299,159.176z" data-fill="c3" style="fill: rgb(179, 180, 180);"></path></g></g><g data-idx="3" data-dup="" dx="128" dy="128" style="transform-origin: 284.533px 274.653px; animation: 1s linear 0s infinite normal forwards running beat-c3c25978-44d9-4148-bd51-029e8fe73fe8;"><g transform="translate(128,128)"><path fill="#B3B4B4" d="M156.299,159.176l-1.714-5.053c3.929-1.333,6.042-5.614,4.709-9.543c-0.645-1.903-1.994-3.442-3.796-4.331
	c-1.803-0.89-3.844-1.024-5.747-0.378l-1.714-5.053c3.254-1.103,6.741-0.874,9.822,0.646c3.08,1.52,5.385,4.149,6.488,7.402
	C166.625,149.582,163.015,156.898,156.299,159.176z" data-fill="c3" style="fill: rgb(179, 180, 180);"></path></g></g><g data-idx="4" data-dup="" dx="-128" dy="128" style="transform-origin: -25.5058px 277.495px; animation: 1s linear 0s infinite normal forwards running beat-c3c25978-44d9-4148-bd51-029e8fe73fe8;"><g transform="translate(-128,128)"><ellipse transform="matrix(0.7249 -0.6888 0.6888 0.7249 -74.7837 111.7244)" fill="#B3B4B4" cx="102.5" cy="149.5" rx="4.4" ry="4.4" data-fill="c3" style="fill: rgb(179, 180, 180);"></ellipse></g></g><g data-idx="4" data-dup="" dx="128" dy="128" style="transform-origin: 230.494px 277.495px; animation: 1s linear 0s infinite normal forwards running beat-c3c25978-44d9-4148-bd51-029e8fe73fe8;"><g transform="translate(128,128)"><ellipse transform="matrix(0.7249 -0.6888 0.6888 0.7249 -74.7837 111.7244)" fill="#B3B4B4" cx="102.5" cy="149.5" rx="4.4" ry="4.4" data-fill="c3" style="fill: rgb(179, 180, 180);"></ellipse></g></g><g data-idx="5" data-dup="" dx="-128" dy="128" style="transform-origin: 114.171px 372.691px; animation: 1s linear 0s infinite normal forwards running beat-c3c25978-44d9-4148-bd51-029e8fe73fe8;"><g transform="translate(-128,128)"><polygon fill="#B3B4B4" points="231.486,249.178 247.065,235.877 252.857,238.786 235.18,253.505 " data-fill="c3" style="fill: rgb(179, 180, 180);"></polygon></g></g><g data-idx="5" data-dup="" dx="128" dy="128" style="transform-origin: 370.171px 372.691px; animation: 1s linear 0s infinite normal forwards running beat-c3c25978-44d9-4148-bd51-029e8fe73fe8;"><g transform="translate(128,128)"><polygon fill="#B3B4B4" points="231.486,249.178 247.065,235.877 252.857,238.786 235.18,253.505 " data-fill="c3" style="fill: rgb(179, 180, 180);"></polygon></g></g><g data-idx="6" data-dup="" dx="-128" dy="128" style="transform-origin: -20.197px 159.069px; animation: 1s linear 0s infinite normal forwards running beat-c3c25978-44d9-4148-bd51-029e8fe73fe8;"><g transform="translate(-128,128)"><polygon fill="#B3B4B4" points="115.367,21.954 103.961,43.014 100.239,36.891 110.431,19.123 " data-fill="c3" style="fill: rgb(179, 180, 180);"></polygon></g></g><g data-idx="6" data-dup="" dx="128" dy="128" style="transform-origin: 235.803px 159.069px; animation: 1s linear 0s infinite normal forwards running beat-c3c25978-44d9-4148-bd51-029e8fe73fe8;"><g transform="translate(128,128)"><polygon fill="#B3B4B4" points="115.367,21.954 103.961,43.014 100.239,36.891 110.431,19.123 " data-fill="c3" style="fill: rgb(179, 180, 180);"></polygon></g></g><g data-idx="7" data-dup="" dx="-128" dy="128" style="transform-origin: 94.1px 248.85px; animation: 1s linear 0s infinite normal forwards running beat-c3c25978-44d9-4148-bd51-029e8fe73fe8;"><g transform="translate(-128,128)"><path fill="#B3B4B4" d="M222.104,130.57c-0.044,0-0.088,0-0.132-0.001c-2.596-0.034-5.024-1.077-6.835-2.937
	c-3.74-3.84-3.659-10.006,0.181-13.746c1.86-1.812,4.308-2.785,6.91-2.756c2.596,0.034,5.024,1.078,6.835,2.938
	c3.74,3.839,3.659,10.006-0.181,13.745C227.054,129.594,224.651,130.57,222.104,130.57z M222.099,115.576
	c-1.382,0-2.686,0.53-3.678,1.496c-2.083,2.029-2.127,5.374-0.098,7.458c0.983,1.009,2.3,1.575,3.708,1.594
	c1.42,0.013,2.74-0.512,3.749-1.495c2.083-2.029,2.127-5.374,0.098-7.457l0,0c-0.983-1.009-2.3-1.575-3.708-1.594
	C222.146,115.576,222.122,115.576,222.099,115.576z" data-fill="c3" style="fill: rgb(179, 180, 180);"></path></g></g><g data-idx="7" data-dup="" dx="128" dy="128" style="transform-origin: 350.1px 248.85px; animation: 1s linear 0s infinite normal forwards running beat-c3c25978-44d9-4148-bd51-029e8fe73fe8;"><g transform="translate(128,128)"><path fill="#B3B4B4" d="M222.104,130.57c-0.044,0-0.088,0-0.132-0.001c-2.596-0.034-5.024-1.077-6.835-2.937
	c-3.74-3.84-3.659-10.006,0.181-13.746c1.86-1.812,4.308-2.785,6.91-2.756c2.596,0.034,5.024,1.078,6.835,2.938
	c3.74,3.839,3.659,10.006-0.181,13.745C227.054,129.594,224.651,130.57,222.104,130.57z M222.099,115.576
	c-1.382,0-2.686,0.53-3.678,1.496c-2.083,2.029-2.127,5.374-0.098,7.458c0.983,1.009,2.3,1.575,3.708,1.594
	c1.42,0.013,2.74-0.512,3.749-1.495c2.083-2.029,2.127-5.374,0.098-7.457l0,0c-0.983-1.009-2.3-1.575-3.708-1.594
	C222.146,115.576,222.122,115.576,222.099,115.576z" data-fill="c3" style="fill: rgb(179, 180, 180);"></path></g></g><g data-idx="8" data-dup="" dx="-128" dy="128" style="transform-origin: 46.6647px 136.842px; animation: 1s linear 0s infinite normal forwards running beat-c3c25978-44d9-4148-bd51-029e8fe73fe8;"><g transform="translate(-128,128)"><path fill="#B3B4B4" d="M184.509,10.022l-4.015,1.058c-0.822-3.122-4.032-4.993-7.154-4.17c-1.512,0.398-2.779,1.362-3.567,2.713
	c-0.788,1.352-1.003,2.929-0.603,4.44l-4.015,1.058c-0.681-2.585-0.315-5.28,1.031-7.589c1.346-2.309,3.511-3.956,6.096-4.637
	C177.619,1.489,183.103,4.687,184.509,10.022z" data-fill="c3" style="fill: rgb(179, 180, 180);"></path></g></g><g data-idx="8" data-dup="" dx="128" dy="128" style="transform-origin: 302.665px 136.842px; animation: 1s linear 0s infinite normal forwards running beat-c3c25978-44d9-4148-bd51-029e8fe73fe8;"><g transform="translate(128,128)"><path fill="#B3B4B4" d="M184.509,10.022l-4.015,1.058c-0.822-3.122-4.032-4.993-7.154-4.17c-1.512,0.398-2.779,1.362-3.567,2.713
	c-0.788,1.352-1.003,2.929-0.603,4.44l-4.015,1.058c-0.681-2.585-0.315-5.28,1.031-7.589c1.346-2.309,3.511-3.956,6.096-4.637
	C177.619,1.489,183.103,4.687,184.509,10.022z" data-fill="c3" style="fill: rgb(179, 180, 180);"></path></g></g><g data-idx="9" data-dup="" dx="-128" dy="128" style="transform-origin: -6.92412px 350.399px; animation: 1s linear 0s infinite normal forwards running beat-c3c25978-44d9-4148-bd51-029e8fe73fe8;"><g transform="translate(-128,128)"><g transform="matrix(0.9912 0.1325 -0.1325 0.9912 30.542 -14.083) translate(121.067,222.398) scale(0.6786666666666666)"><g data-icon="" transform="scale(0.9)">  <use xlink:href="#id-0.0783534317984389" x="-50" y="-50"></use>
</g></g></g></g><g data-idx="9" data-dup="" dx="128" dy="128" style="transform-origin: 249.076px 350.399px; animation: 1s linear 0s infinite normal forwards running beat-c3c25978-44d9-4148-bd51-029e8fe73fe8;"><g transform="translate(128,128)"><g transform="matrix(0.9912 0.1325 -0.1325 0.9912 30.542 -14.083) translate(121.067,222.398) scale(0.6786666666666666)"><g data-icon="" transform="scale(0.9)">  <use xlink:href="#id-0.0783534317984389" x="-50" y="-50"></use>
</g></g></g></g><g data-idx="10" data-dup="" dx="-128" dy="128" style="transform-origin: 33.2569px 203.174px; animation: 1s linear 0s infinite normal forwards running beat-c3c25978-44d9-4148-bd51-029e8fe73fe8;"><g transform="translate(-128,128)"><g transform="matrix(-0.0456 0.999 -0.999 -0.0456 243.7065 -82.5047) translate(161.268,75.17099999999999) scale(0.47706666666666664)"><g data-icon="" transform="scale(0.9)">  <use xlink:href="#id-0.0783534317984389" x="-50" y="-50"></use>
</g></g></g></g><g data-idx="10" data-dup="" dx="128" dy="128" style="transform-origin: 289.257px 203.174px; animation: 1s linear 0s infinite normal forwards running beat-c3c25978-44d9-4148-bd51-029e8fe73fe8;"><g transform="translate(128,128)"><g transform="matrix(-0.0456 0.999 -0.999 -0.0456 243.7065 -82.5047) translate(161.268,75.17099999999999) scale(0.47706666666666664)"><g data-icon="" transform="scale(0.9)">  <use xlink:href="#id-0.0783534317984389" x="-50" y="-50"></use>
</g></g></g></g><g data-idx="11" data-dup="" dx="-128" dy="128" style="transform-origin: 87.3082px 321.082px; animation: 1s linear 0s infinite normal forwards running beat-c3c25978-44d9-4148-bd51-029e8fe73fe8;"><g transform="translate(-128,128)"><g transform="matrix(0.5905 -0.8071 0.8071 0.5905 -67.6584 252.8308) translate(215.293,193.0815) scale(0.5214666666666667)"><g data-icon="" transform="scale(0.9)">  <use xlink:href="#id-0.0783534317984389" x="-50" y="-50"></use>
</g></g></g></g><g data-idx="11" data-dup="" dx="128" dy="128" style="transform-origin: 343.308px 321.082px; animation: 1s linear 0s infinite normal forwards running beat-c3c25978-44d9-4148-bd51-029e8fe73fe8;"><g transform="translate(128,128)"><g transform="matrix(0.5905 -0.8071 0.8071 0.5905 -67.6584 252.8308) translate(215.293,193.0815) scale(0.5214666666666667)"><g data-icon="" transform="scale(0.9)">  <use xlink:href="#id-0.0783534317984389" x="-50" y="-50"></use>
</g></g></g></g><g data-idx="12" data-dup="" dx="-128" dy="128" style="transform-origin: -78.815px 166.304px; animation: 1s linear 0s infinite normal forwards running beat-c3c25978-44d9-4148-bd51-029e8fe73fe8;"><g transform="translate(-128,128)"><g transform="matrix(-0.4749 -0.8801 0.8801 -0.4749 38.8277 99.7848) translate(49.185,38.308499999999995) scale(0.5980444444444444)"><g data-icon="" transform="scale(0.9)">  <use xlink:href="#id-0.0783534317984389" x="-50" y="-50"></use>
</g></g></g></g><g data-idx="12" data-dup="" dx="128" dy="128" style="transform-origin: 177.185px 166.304px; animation: 1s linear 0s infinite normal forwards running beat-c3c25978-44d9-4148-bd51-029e8fe73fe8;"><g transform="translate(128,128)"><g transform="matrix(-0.4749 -0.8801 0.8801 -0.4749 38.8277 99.7848) translate(49.185,38.308499999999995) scale(0.5980444444444444)"><g data-icon="" transform="scale(0.9)">  <use xlink:href="#id-0.0783534317984389" x="-50" y="-50"></use>
</g></g></g></g><g data-idx="13" data-dup="" dx="-128" dy="128" style="transform-origin: -89.5674px 270.247px; animation: 1s linear 0s infinite normal forwards running beat-c3c25978-44d9-4148-bd51-029e8fe73fe8;"><g transform="translate(-128,128)"><g transform="matrix(0.7381 -0.6747 0.6747 0.7381 -85.9069 63.1885) translate(38.434,142.243) scale(0.607688888888889)"><g data-icon="" transform="scale(0.9)">  <use xlink:href="#id-0.0783534317984389" x="-50" y="-50"></use>
</g></g></g></g><g data-idx="13" data-dup="" dx="128" dy="128" style="transform-origin: 166.433px 270.247px; animation: 1s linear 0s infinite normal forwards running beat-c3c25978-44d9-4148-bd51-029e8fe73fe8;"><g transform="translate(128,128)"><g transform="matrix(0.7381 -0.6747 0.6747 0.7381 -85.9069 63.1885) translate(38.434,142.243) scale(0.607688888888889)"><g data-icon="" transform="scale(0.9)">  <use xlink:href="#id-0.0783534317984389" x="-50" y="-50"></use>
</g></g></g></g></g><style id="beat-c3c25978-44d9-4148-bd51-029e8fe73fe8" data-anikit="">@keyframes beat-c3c25978-44d9-4148-bd51-029e8fe73fe8
{
  0% {
    animation-timing-function: cubic-bezier(0.1028,0.2484,0.1372,0.849);
    transform: scale(1);
  }
  34% {
    animation-timing-function: cubic-bezier(0.7116,0.2095,0.8159,0.6876);
    transform: scale(1.2);
  }
  68% {
    animation-timing-function: cubic-bezier(0.1475,0.2888,0.294,0.883);
    transform: scale(1.0268);
  }
  84% {
    animation-timing-function: cubic-bezier(0.8176,0.2193,0.867,0.6889);
    transform: scale(1.0932);
  }
  100% {
    transform: scale(1);
  }
}</style></svg>